<svg xmlns="http://www.w3.org/2000/svg" width="180" height="180" viewBox="0 0 180 180">
<filter id="n"><feTurbulence type="fractalNoise" baseFrequency=".9 .55" numOctaves="3" seed="17"/><feColorMatrix values="1 0 0 0 0 0 1 0 0 0 0 0 1 0 0 0 0 0 .16 0"/></filter>
<rect width="180" height="180" fill="#e5489b"/>
<rect width="180" height="180" filter="url(#n)" opacity=".22"/>
<g stroke="#f7c4db" stroke-opacity=".18" stroke-width=".7" fill="none">
<path d="M7 23c16-8 26 5 42-2s25-2 37 3 29-5 41-2 25 2 43-4"/>
<path d="M4 92c12 5 22-7 38-3s29 9 45 2 28-2 45 4 27-3 44 0"/>
<path d="M13 148c17-5 27 7 43 1s27-1 43 3 31-8 55-1"/>
</g>
<g fill="#5f173e" opacity=".12">
<circle cx="22" cy="38" r="1.2"/><circle cx="114" cy="27" r=".9"/><circle cx="159" cy="64" r="1.1"/>
<circle cx="68" cy="113" r="1.3"/><circle cx="141" cy="143" r=".8"/><circle cx="31" cy="157" r="1"/>
</g></svg>